name rise38.3101peak57.3503fall81.6963.mot
datacolumns 19
datarows 11
range 15.56161200000000 15.57827500000000
endheader
time	ground_force1_vx	ground_force1_vy	ground_force1_vz	ground_force1_px	ground_force1_py	ground_force1_pz	ground_force2_vx	ground_force2_vy	ground_force2_vz	ground_force2_px	ground_force2_py	ground_force2_pz	ground_torque1_x	ground_torque1_y	ground_torque1_z	ground_torque2_x	ground_torque2_y	ground_torque2_z	
15.56161200000000	-9.86314100000000	43.98836200000000	-9.07449300000000	0.33708200000000	0.00000000000000	0.09429400000000	-61.06492300000000	769.68018400000005	-62.43244700000000	0.12610700000000	0.00000000000000	-0.09540600000000	0.00000000000000	-5.45561700000000	0.00000000000000	0.00000000000000	-26.44767900000000	0.00000000000000	
15.56327500000000	-10.74818300000000	51.75439800000000	-10.16610100000000	0.34159900000000	0.00000000000000	0.09538000000000	-61.14675100000000	766.11459600000001	-61.99434100000000	0.12551500000000	0.00000000000000	-0.09530600000000	0.00000000000000	-6.21335200000000	0.00000000000000	0.00000000000000	-26.25187900000000	0.00000000000000	
15.56494900000000	-11.42818500000000	59.67571000000000	-11.14380600000000	0.34567800000000	0.00000000000000	0.09636300000000	-61.22341700000000	762.41070300000001	-61.52393400000000	0.12492700000000	0.00000000000000	-0.09520000000000	0.00000000000000	-6.92466700000000	0.00000000000000	0.00000000000000	-26.05126900000000	0.00000000000000	
15.56660900000000	-11.87621300000000	67.65692600000000	-11.98332900000000	0.34938500000000	0.00000000000000	0.09726100000000	-61.29552900000000	758.56964400000004	-61.02130000000000	0.12434400000000	0.00000000000000	-0.09508900000000	0.00000000000000	-7.57372100000000	0.00000000000000	0.00000000000000	-25.84605300000000	0.00000000000000	
15.56827600000000	-12.07682100000000	75.62547900000000	-12.66876100000000	0.35277300000000	0.00000000000000	0.09808700000000	-61.36367100000000	754.59261300000003	-60.48657500000000	0.12376400000000	0.00000000000000	-0.09497300000000	0.00000000000000	-8.14925100000000	0.00000000000000	0.00000000000000	-25.63643800000000	0.00000000000000	
15.56994700000000	-12.02581000000000	83.53402600000000	-13.19262700000000	0.35588300000000	0.00000000000000	0.09885100000000	-61.42839300000000	750.48084600000004	-59.91996000000000	0.12318700000000	0.00000000000000	-0.09485200000000	0.00000000000000	-8.64477700000000	0.00000000000000	0.00000000000000	-25.42263400000000	0.00000000000000	
15.57161200000000	-11.72911100000000	91.36036400000000	-13.55526500000000	0.35875100000000	0.00000000000000	0.09956100000000	-61.49021000000000	746.23561400000006	-59.32171900000000	0.12261300000000	0.00000000000000	-0.09472500000000	0.00000000000000	-9.05837400000000	0.00000000000000	0.00000000000000	-25.20485300000000	0.00000000000000	
15.57329000000000	-11.20103400000000	99.10529500000000	-13.76365300000000	0.36140500000000	0.00000000000000	0.10022600000000	-61.54959600000000	741.85820899999999	-58.69218000000000	0.12204000000000	0.00000000000000	-0.09459300000000	0.00000000000000	-9.39210900000000	0.00000000000000	0.00000000000000	-24.98330700000000	0.00000000000000	
15.57494700000000	-10.46212200000000	106.78894600000000	-13.82991400000000	0.36387000000000	0.00000000000000	0.10084900000000	-61.60698100000000	737.34993699999995	-58.03173600000000	0.12146800000000	0.00000000000000	-0.09445600000000	0.00000000000000	-9.65124800000000	0.00000000000000	0.00000000000000	-24.75820700000000	0.00000000000000	
15.57661000000000	-9.53687800000000	114.44613699999999	-13.76964400000000	0.36616600000000	0.00000000000000	0.10143700000000	-61.66274700000000	732.71210900000005	-57.34084500000000	0.12089600000000	0.00000000000000	-0.09431300000000	0.00000000000000	-9.84333700000000	0.00000000000000	0.00000000000000	-24.52976500000000	0.00000000000000	
15.57827500000000	-8.45155500000000	122.12132699999999	-13.60025700000000	0.36831100000000	0.00000000000000	0.10199200000000	-61.71722200000000	727.94602899999995	-56.62002900000000	0.12032400000000	0.00000000000000	-0.09416600000000	0.00000000000000	-9.97725500000000	0.00000000000000	0.00000000000000	-24.29819300000000	0.00000000000000	
